<svg class="lds-spinner" width="200" height="200" xmlns="http://www.w3.org/2000/svg" viewBox="0 0 100 100" preserveAspectRatio="xMidYMid" style="background:0 0"><rect x="47" y="24" rx="9.4" ry="4.8" width="6" height="12" fill="#2ab3ff"><animate attributeName="opacity" values="1;0" keyTimes="0;1" dur="0.7s" begin="-0.6416666666666666s" repeatCount="indefinite"/></rect><rect x="47" y="24" rx="9.4" ry="4.8" width="6" height="12" fill="#2ab3ff" transform="rotate(30 50 50)"><animate attributeName="opacity" values="1;0" keyTimes="0;1" dur="0.7s" begin="-0.5833333333333334s" repeatCount="indefinite"/></rect><rect x="47" y="24" rx="9.4" ry="4.8" width="6" height="12" fill="#2ab3ff" transform="rotate(60 50 50)"><animate attributeName="opacity" values="1;0" keyTimes="0;1" dur="0.7s" begin="-0.525s" repeatCount="indefinite"/></rect><rect x="47" y="24" rx="9.4" ry="4.8" width="6" height="12" fill="#2ab3ff" transform="rotate(90 50 50)"><animate attributeName="opacity" values="1;0" keyTimes="0;1" dur="0.7s" begin="-0.4666666666666666s" repeatCount="indefinite"/></rect><rect x="47" y="24" rx="9.4" ry="4.8" width="6" height="12" fill="#2ab3ff" transform="rotate(120 50 50)"><animate attributeName="opacity" values="1;0" keyTimes="0;1" dur="0.7s" begin="-0.40833333333333327s" repeatCount="indefinite"/></rect><rect x="47" y="24" rx="9.4" ry="4.8" width="6" height="12" fill="#2ab3ff" transform="rotate(150 50 50)"><animate attributeName="opacity" values="1;0" keyTimes="0;1" dur="0.7s" begin="-0.3499999999999999s" repeatCount="indefinite"/></rect><rect x="47" y="24" rx="9.4" ry="4.8" width="6" height="12" fill="#2ab3ff" transform="rotate(180 50 50)"><animate attributeName="opacity" values="1;0" keyTimes="0;1" dur="0.7s" begin="-0.2916666666666667s" repeatCount="indefinite"/></rect><rect x="47" y="24" rx="9.4" ry="4.8" width="6" height="12" fill="#2ab3ff" transform="rotate(210 50 50)"><animate attributeName="opacity" values="1;0" keyTimes="0;1" dur="0.7s" begin="-0.2333333333333333s" repeatCount="indefinite"/></rect><rect x="47" y="24" rx="9.4" ry="4.8" width="6" height="12" fill="#2ab3ff" transform="rotate(240 50 50)"><animate attributeName="opacity" values="1;0" keyTimes="0;1" dur="0.7s" begin="-0.17499999999999996s" repeatCount="indefinite"/></rect><rect x="47" y="24" rx="9.4" ry="4.8" width="6" height="12" fill="#2ab3ff" transform="rotate(270 50 50)"><animate attributeName="opacity" values="1;0" keyTimes="0;1" dur="0.7s" begin="-0.11666666666666665s" repeatCount="indefinite"/></rect><rect x="47" y="24" rx="9.4" ry="4.8" width="6" height="12" fill="#2ab3ff" transform="rotate(300 50 50)"><animate attributeName="opacity" values="1;0" keyTimes="0;1" dur="0.7s" begin="-0.05833333333333333s" repeatCount="indefinite"/></rect><rect x="47" y="24" rx="9.4" ry="4.8" width="6" height="12" fill="#2ab3ff" transform="rotate(330 50 50)"><animate attributeName="opacity" values="1;0" keyTimes="0;1" dur="0.7s" begin="0s" repeatCount="indefinite"/></rect></svg>